<svg id="Layer_1" data-name="Layer 1" xmlns="http://www.w3.org/2000/svg" viewBox="0 0 512 512"><title>Discount</title><path d="M480.641,228.776l-37.125-43.568a20.516,20.516,0,0,1-4.865-11.745l-4.557-57.057a41.8,41.8,0,0,0-38.5-38.505l-57.052-4.547a20.588,20.588,0,0,1-11.755-4.87L283.224,31.359a41.809,41.809,0,0,0-54.448,0L185.208,68.484a20.516,20.516,0,0,1-11.745,4.865l-57.057,4.557a41.8,41.8,0,0,0-38.505,38.5l-4.547,57.052a20.588,20.588,0,0,1-4.87,11.755L31.359,228.776a41.8,41.8,0,0,0,0,54.448l37.125,43.568a20.516,20.516,0,0,1,4.865,11.745l4.557,57.057a41.8,41.8,0,0,0,38.5,38.505l57.052,4.547a20.588,20.588,0,0,1,11.755,4.87l43.562,37.125a41.793,41.793,0,0,0,54.448,0l43.568-37.125a20.516,20.516,0,0,1,11.745-4.865l57.057-4.557a41.8,41.8,0,0,0,38.505-38.5l4.547-57.052a20.588,20.588,0,0,1,4.87-11.755l37.125-43.562A41.8,41.8,0,0,0,480.641,228.776ZM202.667,170.667a32,32,0,1,1-32,32A32.035,32.035,0,0,1,202.667,170.667ZM309.333,341.333a32,32,0,1,1,32-32A32.035,32.035,0,0,1,309.333,341.333Zm28.875-152.458L188.875,338.208a10.666,10.666,0,0,1-15.083-15.083L323.125,173.792a10.666,10.666,0,0,1,15.083,15.083Z" id="id_104" style="fill: rgb(224, 220, 13);"></path><path d="M309.333,298.667A10.667,10.667,0,1,0,320,309.333,10.679,10.679,0,0,0,309.333,298.667Z" id="id_105" style="fill: rgb(255, 255, 250);"></path><path d="M202.667,213.333A10.667,10.667,0,1,0,192,202.667,10.679,10.679,0,0,0,202.667,213.333Z" id="id_106" style="fill: rgb(255, 255, 255);"></path></svg>